<mxfile host="Electron" modified="2024-02-06T04:58:31.478Z" agent="Mozilla/5.0 (X11; Linux x86_64) AppleWebKit/537.36 (KHTML, like Gecko) draw.io/22.1.21 Chrome/120.0.6099.109 Electron/28.1.0 Safari/537.36" etag="quExwPPnRotTmZk8XA8u" version="22.1.21" type="device">
  <diagram name="Page-1" id="lv2RBA-2qfxnkMvO_x3A">
    <mxGraphModel dx="584" dy="907" grid="1" gridSize="10" guides="1" tooltips="1" connect="1" arrows="1" fold="1" page="1" pageScale="1" pageWidth="850" pageHeight="1100" math="0" shadow="0">
      <root>
        <mxCell id="0" />
        <mxCell id="1" parent="0" />
        <mxCell id="4REqOIB7tcGAyymllORO-14" style="edgeStyle=orthogonalEdgeStyle;shape=connector;curved=0;rounded=0;orthogonalLoop=1;jettySize=auto;html=1;exitX=0;exitY=0.5;exitDx=0;exitDy=0;labelBackgroundColor=default;strokeColor=#666666;strokeWidth=3;align=center;verticalAlign=middle;fontFamily=Helvetica;fontSize=11;fontColor=default;endArrow=none;endFill=0;startArrow=openThin;startFill=0;fontStyle=0" parent="1" source="4REqOIB7tcGAyymllORO-15" edge="1">
          <mxGeometry relative="1" as="geometry">
            <mxPoint x="1001.69" y="455" as="targetPoint" />
          </mxGeometry>
        </mxCell>
        <mxCell id="4REqOIB7tcGAyymllORO-15" value="&lt;b style=&quot;border-color: var(--border-color);&quot;&gt;&lt;font style=&quot;border-color: var(--border-color);&quot; color=&quot;#666666&quot;&gt;locations:&lt;/font&gt;&lt;/b&gt;" style="rounded=1;whiteSpace=wrap;html=1;strokeColor=#666666;fontFamily=Helvetica;fontSize=12;fontColor=#143642;fillColor=#ffffff;arcSize=50;fontStyle=0;shadow=0;labelBackgroundColor=none;align=center;verticalAlign=middle;strokeWidth=3;container=0;" parent="1" vertex="1">
          <mxGeometry x="1082.6299999999999" y="440" width="78.76" height="30" as="geometry" />
        </mxCell>
        <mxCell id="4REqOIB7tcGAyymllORO-19" value="&lt;font size=&quot;1&quot; color=&quot;#666666&quot;&gt;&lt;b style=&quot;font-size: 12px;&quot;&gt;Locations&lt;/b&gt;&lt;/font&gt;" style="text;html=1;strokeColor=none;fillColor=none;align=left;verticalAlign=middle;whiteSpace=wrap;rounded=0;fontSize=11;fontFamily=Helvetica;fontColor=#333333;fontStyle=0;container=0;" parent="1" vertex="1">
          <mxGeometry x="1002.39" y="430" width="60" height="30" as="geometry" />
        </mxCell>
        <mxCell id="4REqOIB7tcGAyymllORO-65" style="edgeStyle=orthogonalEdgeStyle;shape=connector;curved=0;rounded=1;orthogonalLoop=1;jettySize=auto;html=1;exitX=1;exitY=0.5;exitDx=0;exitDy=0;labelBackgroundColor=default;strokeColor=#666666;strokeWidth=3;align=center;verticalAlign=middle;fontFamily=Helvetica;fontSize=11;fontColor=default;startArrow=none;startFill=0;endArrow=none;endFill=0;fontStyle=0" parent="1" source="4REqOIB7tcGAyymllORO-50" edge="1">
          <mxGeometry relative="1" as="geometry">
            <mxPoint x="1500" y="457" as="targetPoint" />
            <Array as="points">
              <mxPoint x="1480" y="432" />
              <mxPoint x="1480" y="457" />
            </Array>
          </mxGeometry>
        </mxCell>
        <mxCell id="4REqOIB7tcGAyymllORO-50" value="&lt;b style=&quot;border-color: var(--border-color); color: rgb(51, 51, 51);&quot;&gt;&lt;font style=&quot;border-color: var(--border-color);&quot; color=&quot;#666666&quot;&gt;Locations&lt;/font&gt;&lt;/b&gt;" style="rounded=1;whiteSpace=wrap;html=1;strokeColor=#666666;fontFamily=Helvetica;fontSize=12;fontColor=#143642;fillColor=#FFFFFF;arcSize=0;fontStyle=0;shadow=0;labelBackgroundColor=none;container=0;strokeWidth=3;" parent="1" vertex="1">
          <mxGeometry x="1358.6799999999996" y="417" width="80.34" height="30" as="geometry" />
        </mxCell>
        <mxCell id="4REqOIB7tcGAyymllORO-55" style="edgeStyle=orthogonalEdgeStyle;shape=connector;curved=0;rounded=1;orthogonalLoop=1;jettySize=auto;html=1;exitX=1;exitY=0.5;exitDx=0;exitDy=0;entryX=0;entryY=0.5;entryDx=0;entryDy=0;labelBackgroundColor=default;strokeColor=#666666;strokeWidth=3;align=center;verticalAlign=middle;fontFamily=Helvetica;fontSize=11;fontColor=default;startArrow=none;startFill=0;endArrow=openThin;endFill=0;fontStyle=0" parent="1" source="4REqOIB7tcGAyymllORO-51" target="4REqOIB7tcGAyymllORO-50" edge="1">
          <mxGeometry relative="1" as="geometry">
            <Array as="points">
              <mxPoint x="1310" y="455" />
              <mxPoint x="1310" y="432" />
            </Array>
          </mxGeometry>
        </mxCell>
        <mxCell id="4REqOIB7tcGAyymllORO-51" value="&lt;p&gt;&lt;font color=&quot;#666666&quot;&gt;&lt;b&gt;location-name:&lt;/b&gt;&lt;/font&gt;&lt;/p&gt;" style="rounded=1;whiteSpace=wrap;html=1;arcSize=50;fontStyle=0;fillColor=#ffffff;strokeColor=#666666;labelBackgroundColor=none;fontColor=#143642;container=0;strokeWidth=3;" parent="1" vertex="1">
          <mxGeometry x="1185.6861111111111" y="440" width="107.5" height="30" as="geometry" />
        </mxCell>
        <mxCell id="4REqOIB7tcGAyymllORO-53" value="" style="edgeStyle=orthogonalEdgeStyle;shape=connector;curved=0;rounded=0;orthogonalLoop=1;jettySize=auto;html=1;labelBackgroundColor=default;strokeColor=#666666;strokeWidth=3;align=center;verticalAlign=middle;fontFamily=Helvetica;fontSize=11;fontColor=default;startArrow=none;startFill=0;endArrow=openThin;endFill=0;fontStyle=0" parent="1" source="4REqOIB7tcGAyymllORO-15" target="4REqOIB7tcGAyymllORO-51" edge="1">
          <mxGeometry relative="1" as="geometry">
            <Array as="points">
              <mxPoint x="1170" y="455" />
              <mxPoint x="1170" y="455" />
            </Array>
          </mxGeometry>
        </mxCell>
        <mxCell id="4REqOIB7tcGAyymllORO-64" style="edgeStyle=orthogonalEdgeStyle;shape=connector;curved=0;rounded=1;orthogonalLoop=1;jettySize=auto;html=1;exitX=1;exitY=0.5;exitDx=0;exitDy=0;labelBackgroundColor=default;strokeColor=#666666;strokeWidth=3;align=center;verticalAlign=middle;fontFamily=Helvetica;fontSize=11;fontColor=default;startArrow=none;startFill=0;endArrow=openThin;endFill=0;entryX=-0.004;entryY=0.719;entryDx=0;entryDy=0;entryPerimeter=0;fontStyle=0" parent="1" source="4REqOIB7tcGAyymllORO-54" edge="1">
          <mxGeometry relative="1" as="geometry">
            <mxPoint x="1511.52" y="456.83000000000004" as="targetPoint" />
            <Array as="points">
              <mxPoint x="1480" y="481" />
              <mxPoint x="1480" y="457" />
              <mxPoint x="1512" y="457" />
            </Array>
          </mxGeometry>
        </mxCell>
        <mxCell id="4REqOIB7tcGAyymllORO-54" value="&lt;b style=&quot;border-color: var(--border-color); color: rgb(51, 51, 51);&quot;&gt;&lt;font style=&quot;border-color: var(--border-color);&quot; color=&quot;#666666&quot;&gt;Data Requirements&lt;/font&gt;&lt;/b&gt;" style="rounded=1;whiteSpace=wrap;html=1;strokeColor=#666666;fontFamily=Helvetica;fontSize=12;fontColor=#143642;fillColor=#FFFFFF;arcSize=0;fontStyle=0;shadow=0;labelBackgroundColor=none;container=0;strokeWidth=3;" parent="1" vertex="1">
          <mxGeometry x="1332.0099999999998" y="466" width="133.68" height="30" as="geometry" />
        </mxCell>
        <mxCell id="4REqOIB7tcGAyymllORO-56" style="edgeStyle=orthogonalEdgeStyle;shape=connector;curved=0;rounded=1;orthogonalLoop=1;jettySize=auto;html=1;exitX=1;exitY=0.5;exitDx=0;exitDy=0;entryX=0;entryY=0.5;entryDx=0;entryDy=0;labelBackgroundColor=default;strokeColor=#666666;strokeWidth=3;align=center;verticalAlign=middle;fontFamily=Helvetica;fontSize=11;fontColor=default;startArrow=none;startFill=0;endArrow=openThin;endFill=0;fontStyle=0" parent="1" source="4REqOIB7tcGAyymllORO-51" target="4REqOIB7tcGAyymllORO-54" edge="1">
          <mxGeometry relative="1" as="geometry">
            <Array as="points">
              <mxPoint x="1310" y="455" />
              <mxPoint x="1310" y="481" />
            </Array>
          </mxGeometry>
        </mxCell>
        <mxCell id="4REqOIB7tcGAyymllORO-2" style="edgeStyle=orthogonalEdgeStyle;shape=connector;curved=0;rounded=0;orthogonalLoop=1;jettySize=auto;html=1;exitX=0;exitY=0.5;exitDx=0;exitDy=0;labelBackgroundColor=default;strokeColor=#666666;strokeWidth=3;align=center;verticalAlign=middle;fontFamily=Helvetica;fontSize=11;fontColor=default;endArrow=none;endFill=0;startArrow=openThin;startFill=0;fontStyle=0" parent="1" source="4REqOIB7tcGAyymllORO-3" edge="1">
          <mxGeometry relative="1" as="geometry">
            <mxPoint x="1001.845" y="328" as="targetPoint" />
          </mxGeometry>
        </mxCell>
        <mxCell id="4REqOIB7tcGAyymllORO-3" value="&lt;b style=&quot;border-color: var(--border-color);&quot;&gt;&lt;font style=&quot;border-color: var(--border-color);&quot; color=&quot;#666666&quot;&gt;Application&lt;/font&gt;&lt;/b&gt;" style="rounded=1;whiteSpace=wrap;html=1;strokeColor=#666666;fontFamily=Helvetica;fontSize=12;fontColor=#333333;fillColor=#ffffff;arcSize=0;fontStyle=0;shadow=0;labelBackgroundColor=none;align=center;verticalAlign=top;strokeWidth=3;container=0;" parent="1" vertex="1">
          <mxGeometry x="1124.845" y="313" width="95" height="30" as="geometry" />
        </mxCell>
        <mxCell id="4REqOIB7tcGAyymllORO-4" style="edgeStyle=orthogonalEdgeStyle;shape=connector;curved=0;rounded=0;orthogonalLoop=1;jettySize=auto;html=1;exitX=1;exitY=0.5;exitDx=0;exitDy=0;labelBackgroundColor=default;strokeColor=#666666;strokeWidth=3;align=center;verticalAlign=middle;fontFamily=Helvetica;fontSize=11;fontColor=default;endArrow=openThin;endFill=0;fontStyle=0" parent="1" source="4REqOIB7tcGAyymllORO-5" edge="1">
          <mxGeometry relative="1" as="geometry">
            <mxPoint x="1511.845" y="328" as="targetPoint" />
          </mxGeometry>
        </mxCell>
        <mxCell id="4REqOIB7tcGAyymllORO-5" value="&lt;b style=&quot;border-color: var(--border-color); color: rgb(51, 51, 51);&quot;&gt;&lt;font style=&quot;border-color: var(--border-color);&quot; color=&quot;#666666&quot;&gt;Locations&lt;/font&gt;&lt;/b&gt;" style="rounded=1;whiteSpace=wrap;html=1;strokeColor=#666666;fontFamily=Helvetica;fontSize=12;fontColor=#333333;fillColor=#ffffff;arcSize=0;fontStyle=0;shadow=0;labelBackgroundColor=none;verticalAlign=top;strokeWidth=3;container=0;" parent="1" vertex="1">
          <mxGeometry x="1294.845" y="313" width="95" height="30" as="geometry" />
        </mxCell>
        <mxCell id="4REqOIB7tcGAyymllORO-6" style="edgeStyle=orthogonalEdgeStyle;shape=connector;curved=0;rounded=0;orthogonalLoop=1;jettySize=auto;html=1;exitX=1;exitY=0.5;exitDx=0;exitDy=0;labelBackgroundColor=default;strokeColor=#666666;strokeWidth=3;align=center;verticalAlign=middle;fontFamily=Helvetica;fontSize=11;fontColor=default;endArrow=openThin;endFill=0;fontStyle=0" parent="1" source="4REqOIB7tcGAyymllORO-3" target="4REqOIB7tcGAyymllORO-5" edge="1">
          <mxGeometry relative="1" as="geometry" />
        </mxCell>
        <mxCell id="MEt0MIwIxQcFvyBTdbw6-34" style="edgeStyle=orthogonalEdgeStyle;shape=connector;curved=0;rounded=0;orthogonalLoop=1;jettySize=auto;html=1;exitX=0;exitY=0.5;exitDx=0;exitDy=0;labelBackgroundColor=default;strokeColor=#666666;strokeWidth=3;align=center;verticalAlign=middle;fontFamily=Helvetica;fontSize=11;fontColor=default;endArrow=none;endFill=0;startArrow=openThin;startFill=0;fontStyle=0" parent="1" source="MEt0MIwIxQcFvyBTdbw6-35" edge="1">
          <mxGeometry relative="1" as="geometry">
            <mxPoint x="1001.69" y="374" as="targetPoint" />
          </mxGeometry>
        </mxCell>
        <mxCell id="MEt0MIwIxQcFvyBTdbw6-35" value="&lt;b style=&quot;border-color: var(--border-color);&quot;&gt;&lt;font style=&quot;border-color: var(--border-color);&quot; color=&quot;#666666&quot;&gt;application:&lt;/font&gt;&lt;/b&gt;" style="rounded=1;whiteSpace=wrap;html=1;strokeColor=#666666;fontFamily=Helvetica;fontSize=12;fontColor=#143642;fillColor=#ffffff;arcSize=50;fontStyle=0;shadow=0;labelBackgroundColor=none;align=center;verticalAlign=middle;strokeWidth=3;container=0;" parent="1" vertex="1">
          <mxGeometry x="1082.6299999999999" y="359" width="78.76" height="30" as="geometry" />
        </mxCell>
        <mxCell id="MEt0MIwIxQcFvyBTdbw6-36" style="edgeStyle=orthogonalEdgeStyle;shape=connector;curved=0;rounded=0;orthogonalLoop=1;jettySize=auto;html=1;exitX=1;exitY=0.5;exitDx=0;exitDy=0;labelBackgroundColor=default;strokeColor=#666666;strokeWidth=3;align=center;verticalAlign=middle;fontFamily=Helvetica;fontSize=11;fontColor=default;endArrow=openThin;endFill=0;fontStyle=0" parent="1" source="MEt0MIwIxQcFvyBTdbw6-46" edge="1">
          <mxGeometry relative="1" as="geometry">
            <mxPoint x="1512" y="374" as="targetPoint" />
            <mxPoint x="1498.000000000001" y="374" as="sourcePoint" />
            <Array as="points" />
          </mxGeometry>
        </mxCell>
        <mxCell id="MEt0MIwIxQcFvyBTdbw6-37" value="&lt;b style=&quot;border-color: var(--border-color); color: rgb(51, 51, 51);&quot;&gt;&lt;font style=&quot;border-color: var(--border-color);&quot; color=&quot;#666666&quot;&gt;name:&lt;/font&gt;&lt;/b&gt;" style="rounded=1;whiteSpace=wrap;html=1;strokeColor=#666666;fontFamily=Helvetica;fontSize=12;fontColor=#143642;fillColor=#ffffff;arcSize=50;fontStyle=0;shadow=0;labelBackgroundColor=none;verticalAlign=middle;strokeWidth=3;container=0;" parent="1" vertex="1">
          <mxGeometry x="1180.69" y="359" width="55.31" height="30" as="geometry" />
        </mxCell>
        <mxCell id="MEt0MIwIxQcFvyBTdbw6-38" style="edgeStyle=orthogonalEdgeStyle;shape=connector;curved=0;rounded=0;orthogonalLoop=1;jettySize=auto;html=1;exitX=1;exitY=0.5;exitDx=0;exitDy=0;labelBackgroundColor=default;strokeColor=#666666;strokeWidth=3;align=center;verticalAlign=middle;fontFamily=Helvetica;fontSize=11;fontColor=default;endArrow=openThin;endFill=0;fontStyle=0" parent="1" source="MEt0MIwIxQcFvyBTdbw6-35" target="MEt0MIwIxQcFvyBTdbw6-37" edge="1">
          <mxGeometry relative="1" as="geometry">
            <Array as="points">
              <mxPoint x="1192" y="374" />
              <mxPoint x="1192" y="374" />
            </Array>
          </mxGeometry>
        </mxCell>
        <mxCell id="MEt0MIwIxQcFvyBTdbw6-39" value="&lt;font size=&quot;1&quot; color=&quot;#666666&quot;&gt;&lt;b style=&quot;font-size: 12px;&quot;&gt;Application&lt;/b&gt;&lt;/font&gt;" style="text;html=1;strokeColor=none;fillColor=none;align=center;verticalAlign=middle;whiteSpace=wrap;rounded=0;fontSize=11;fontFamily=Helvetica;fontColor=#333333;fontStyle=0;container=0;" parent="1" vertex="1">
          <mxGeometry x="1005.39" y="349" width="60" height="30" as="geometry" />
        </mxCell>
        <mxCell id="MEt0MIwIxQcFvyBTdbw6-42" value="" style="edgeStyle=orthogonalEdgeStyle;shape=connector;curved=0;rounded=0;orthogonalLoop=1;jettySize=auto;html=1;exitX=1;exitY=0.5;exitDx=0;exitDy=0;labelBackgroundColor=default;strokeColor=#666666;strokeWidth=3;align=center;verticalAlign=middle;fontFamily=Helvetica;fontSize=11;fontColor=default;endArrow=openThin;endFill=0;fontStyle=0" parent="1" source="MEt0MIwIxQcFvyBTdbw6-37" target="MEt0MIwIxQcFvyBTdbw6-41" edge="1">
          <mxGeometry relative="1" as="geometry">
            <mxPoint x="1511.69" y="374" as="targetPoint" />
            <mxPoint x="1252" y="374" as="sourcePoint" />
            <Array as="points">
              <mxPoint x="1252" y="374" />
              <mxPoint x="1252" y="374" />
            </Array>
          </mxGeometry>
        </mxCell>
        <mxCell id="MEt0MIwIxQcFvyBTdbw6-45" style="edgeStyle=orthogonalEdgeStyle;shape=connector;curved=0;rounded=1;orthogonalLoop=1;jettySize=auto;html=1;labelBackgroundColor=default;strokeColor=#666666;strokeWidth=3;align=center;verticalAlign=middle;fontFamily=Helvetica;fontSize=11;fontColor=default;endArrow=none;endFill=0;fontStyle=0" parent="1" source="MEt0MIwIxQcFvyBTdbw6-41" edge="1">
          <mxGeometry relative="1" as="geometry">
            <mxPoint x="1502" y="374" as="targetPoint" />
            <Array as="points">
              <mxPoint x="1315" y="374" />
              <mxPoint x="1315" y="399" />
              <mxPoint x="1492" y="399" />
              <mxPoint x="1492" y="374" />
            </Array>
          </mxGeometry>
        </mxCell>
        <mxCell id="MEt0MIwIxQcFvyBTdbw6-41" value="&lt;b style=&quot;border-color: var(--border-color); color: rgb(51, 51, 51);&quot;&gt;&lt;font style=&quot;border-color: var(--border-color);&quot; color=&quot;#666666&quot;&gt;String&lt;/font&gt;&lt;/b&gt;" style="ellipse;whiteSpace=wrap;html=1;rounded=1;labelBackgroundColor=none;strokeColor=#666666;fontFamily=Helvetica;fontSize=12;fontColor=default;fillColor=default;container=0;strokeWidth=3;fontStyle=0" parent="1" vertex="1">
          <mxGeometry x="1254.17" y="359" width="50.83" height="30" as="geometry" />
        </mxCell>
        <mxCell id="MEt0MIwIxQcFvyBTdbw6-44" value="" style="edgeStyle=orthogonalEdgeStyle;shape=connector;curved=0;rounded=0;orthogonalLoop=1;jettySize=auto;html=1;exitX=1;exitY=0.5;exitDx=0;exitDy=0;labelBackgroundColor=default;strokeColor=#666666;strokeWidth=3;align=center;verticalAlign=middle;fontFamily=Helvetica;fontSize=11;fontColor=default;endArrow=openThin;endFill=0;fontStyle=0" parent="1" source="MEt0MIwIxQcFvyBTdbw6-41" target="MEt0MIwIxQcFvyBTdbw6-43" edge="1">
          <mxGeometry relative="1" as="geometry">
            <mxPoint x="1511.69" y="374" as="targetPoint" />
            <mxPoint x="1322" y="374" as="sourcePoint" />
            <Array as="points">
              <mxPoint x="1322" y="374" />
              <mxPoint x="1322" y="374" />
            </Array>
          </mxGeometry>
        </mxCell>
        <mxCell id="MEt0MIwIxQcFvyBTdbw6-43" value="&lt;b style=&quot;border-color: var(--border-color); color: rgb(51, 51, 51);&quot;&gt;&lt;font style=&quot;border-color: var(--border-color);&quot; color=&quot;#666666&quot;&gt;description:&lt;/font&gt;&lt;/b&gt;" style="rounded=1;whiteSpace=wrap;html=1;strokeColor=#666666;fontFamily=Helvetica;fontSize=12;fontColor=#143642;fillColor=#ffffff;arcSize=50;fontStyle=0;shadow=0;labelBackgroundColor=none;verticalAlign=middle;strokeWidth=3;container=0;" parent="1" vertex="1">
          <mxGeometry x="1330" y="359" width="85" height="30" as="geometry" />
        </mxCell>
        <mxCell id="MEt0MIwIxQcFvyBTdbw6-47" value="" style="edgeStyle=orthogonalEdgeStyle;shape=connector;curved=0;rounded=0;orthogonalLoop=1;jettySize=auto;html=1;exitX=1;exitY=0.5;exitDx=0;exitDy=0;labelBackgroundColor=default;strokeColor=#666666;strokeWidth=3;align=center;verticalAlign=middle;fontFamily=Helvetica;fontSize=11;fontColor=default;endArrow=openThin;endFill=0;fontStyle=0" parent="1" source="MEt0MIwIxQcFvyBTdbw6-43" target="MEt0MIwIxQcFvyBTdbw6-46" edge="1">
          <mxGeometry relative="1" as="geometry">
            <mxPoint x="1511.69" y="374" as="targetPoint" />
            <mxPoint x="1432" y="374" as="sourcePoint" />
            <Array as="points">
              <mxPoint x="1432" y="374" />
              <mxPoint x="1432" y="374" />
            </Array>
          </mxGeometry>
        </mxCell>
        <mxCell id="MEt0MIwIxQcFvyBTdbw6-46" value="&lt;b style=&quot;border-color: var(--border-color); color: rgb(51, 51, 51);&quot;&gt;&lt;font style=&quot;border-color: var(--border-color);&quot; color=&quot;#666666&quot;&gt;String&lt;/font&gt;&lt;/b&gt;" style="ellipse;whiteSpace=wrap;html=1;rounded=1;labelBackgroundColor=none;strokeColor=#666666;fontFamily=Helvetica;fontSize=12;fontColor=default;fillColor=default;container=0;strokeWidth=3;fontStyle=0" parent="1" vertex="1">
          <mxGeometry x="1433" y="359" width="54" height="30" as="geometry" />
        </mxCell>
        <mxCell id="4REqOIB7tcGAyymllORO-69" style="edgeStyle=orthogonalEdgeStyle;shape=connector;curved=0;rounded=0;orthogonalLoop=1;jettySize=auto;html=1;exitX=0;exitY=0.5;exitDx=0;exitDy=0;labelBackgroundColor=default;strokeColor=#666666;strokeWidth=3;align=center;verticalAlign=middle;fontFamily=Helvetica;fontSize=11;fontColor=default;endArrow=none;endFill=0;startArrow=openThin;startFill=0;fontStyle=0" parent="1" source="4REqOIB7tcGAyymllORO-70" edge="1">
          <mxGeometry relative="1" as="geometry">
            <mxPoint x="1001.89" y="538" as="targetPoint" />
          </mxGeometry>
        </mxCell>
        <mxCell id="4REqOIB7tcGAyymllORO-70" value="&lt;font color=&quot;#666666&quot;&gt;&lt;b&gt;data-requirements:&lt;/b&gt;&lt;/font&gt;" style="rounded=1;whiteSpace=wrap;html=1;strokeColor=#666666;fontFamily=Helvetica;fontSize=12;fontColor=#143642;fillColor=#ffffff;arcSize=50;fontStyle=0;shadow=0;labelBackgroundColor=none;align=center;verticalAlign=middle;strokeWidth=3;container=0;" parent="1" vertex="1">
          <mxGeometry x="1092.6599999999999" y="523" width="120" height="30" as="geometry" />
        </mxCell>
        <mxCell id="4REqOIB7tcGAyymllORO-71" value="&lt;font size=&quot;1&quot; color=&quot;#666666&quot;&gt;&lt;b style=&quot;font-size: 12px;&quot;&gt;Data&lt;br&gt;Requirements&lt;br&gt;&lt;/b&gt;&lt;/font&gt;" style="text;html=1;strokeColor=none;fillColor=none;align=left;verticalAlign=middle;whiteSpace=wrap;rounded=0;fontSize=11;fontFamily=Helvetica;fontColor=#333333;container=0;fontStyle=0" parent="1" vertex="1">
          <mxGeometry x="1000.5899999999999" y="504" width="60" height="30" as="geometry" />
        </mxCell>
        <mxCell id="4REqOIB7tcGAyymllORO-104" value="&lt;font color=&quot;#666666&quot;&gt;&lt;b&gt;data-key:&lt;/b&gt;&lt;/font&gt;" style="rounded=1;whiteSpace=wrap;html=1;strokeColor=#666666;fontFamily=Helvetica;fontSize=12;fontColor=#143642;fillColor=#ffffff;arcSize=50;fontStyle=0;shadow=0;labelBackgroundColor=none;align=center;verticalAlign=middle;strokeWidth=3;container=0;" parent="1" vertex="1">
          <mxGeometry x="1262.6599999999999" y="523" width="70.41" height="30" as="geometry" />
        </mxCell>
        <mxCell id="4REqOIB7tcGAyymllORO-112" style="edgeStyle=orthogonalEdgeStyle;shape=connector;curved=0;rounded=1;orthogonalLoop=1;jettySize=auto;html=1;entryX=0;entryY=0.5;entryDx=0;entryDy=0;labelBackgroundColor=default;strokeColor=#666666;strokeWidth=3;align=center;verticalAlign=middle;fontFamily=Helvetica;fontSize=11;fontColor=default;startArrow=none;startFill=0;endArrow=openThin;endFill=0;fontStyle=0" parent="1" source="4REqOIB7tcGAyymllORO-70" target="4REqOIB7tcGAyymllORO-104" edge="1">
          <mxGeometry relative="1" as="geometry" />
        </mxCell>
        <mxCell id="4REqOIB7tcGAyymllORO-105" value="&lt;b style=&quot;border-color: var(--border-color); color: rgb(51, 51, 51);&quot;&gt;&lt;font style=&quot;border-color: var(--border-color);&quot; color=&quot;#666666&quot;&gt;Output&lt;/font&gt;&lt;/b&gt;" style="rounded=1;whiteSpace=wrap;html=1;strokeColor=#666666;fontFamily=Helvetica;fontSize=12;fontColor=#143642;fillColor=#FFFFFF;arcSize=0;fontStyle=0;shadow=0;labelBackgroundColor=none;container=0;strokeWidth=3;" parent="1" vertex="1">
          <mxGeometry x="1074.1599999999999" y="570" width="55" height="30" as="geometry" />
        </mxCell>
        <mxCell id="4REqOIB7tcGAyymllORO-125" style="edgeStyle=orthogonalEdgeStyle;shape=connector;curved=0;rounded=1;orthogonalLoop=1;jettySize=auto;html=1;exitX=1;exitY=0.5;exitDx=0;exitDy=0;labelBackgroundColor=default;strokeColor=#666666;strokeWidth=3;align=center;verticalAlign=middle;fontFamily=Helvetica;fontSize=11;fontColor=default;startArrow=none;startFill=0;endArrow=openThin;endFill=0;fontStyle=0" parent="1" source="4REqOIB7tcGAyymllORO-106" edge="1">
          <mxGeometry relative="1" as="geometry">
            <mxPoint x="1512.6599999999999" y="584.9310344827586" as="targetPoint" />
            <Array as="points">
              <mxPoint x="1372.6599999999999" y="585" />
              <mxPoint x="1372.6599999999999" y="610" />
              <mxPoint x="1482.6599999999999" y="610" />
              <mxPoint x="1482.6599999999999" y="585" />
            </Array>
          </mxGeometry>
        </mxCell>
        <mxCell id="4REqOIB7tcGAyymllORO-106" value="&lt;font color=&quot;#666666&quot;&gt;&lt;b&gt;Count&lt;/b&gt;&lt;/font&gt;" style="rounded=1;whiteSpace=wrap;html=1;strokeColor=#666666;fontFamily=Helvetica;fontSize=12;fontColor=#143642;fillColor=#FFFFFF;arcSize=0;fontStyle=0;shadow=0;labelBackgroundColor=none;container=0;strokeWidth=3;" parent="1" vertex="1">
          <mxGeometry x="1276.6599999999999" y="570" width="70" height="30" as="geometry" />
        </mxCell>
        <mxCell id="4REqOIB7tcGAyymllORO-123" style="edgeStyle=orthogonalEdgeStyle;shape=connector;curved=0;rounded=1;orthogonalLoop=1;jettySize=auto;html=1;exitX=1;exitY=0.5;exitDx=0;exitDy=0;labelBackgroundColor=default;strokeColor=#666666;strokeWidth=3;align=center;verticalAlign=middle;fontFamily=Helvetica;fontSize=11;fontColor=default;startArrow=none;startFill=0;endArrow=openThin;endFill=0;fontStyle=0" parent="1" source="4REqOIB7tcGAyymllORO-107" edge="1">
          <mxGeometry relative="1" as="geometry">
            <mxPoint x="1512.6599999999999" y="584.9710144927535" as="targetPoint" />
          </mxGeometry>
        </mxCell>
        <mxCell id="4REqOIB7tcGAyymllORO-107" value="&lt;font color=&quot;#666666&quot;&gt;&lt;b&gt;Timeout&lt;/b&gt;&lt;/font&gt;" style="rounded=1;whiteSpace=wrap;html=1;strokeColor=#666666;fontFamily=Helvetica;fontSize=12;fontColor=#143642;fillColor=#FFFFFF;arcSize=0;fontStyle=0;shadow=0;labelBackgroundColor=none;container=0;strokeWidth=3;" parent="1" vertex="1">
          <mxGeometry x="1394.6599999999999" y="570" width="70" height="30" as="geometry" />
        </mxCell>
        <mxCell id="4REqOIB7tcGAyymllORO-122" style="edgeStyle=orthogonalEdgeStyle;shape=connector;curved=0;rounded=1;orthogonalLoop=1;jettySize=auto;html=1;exitX=1;exitY=0.5;exitDx=0;exitDy=0;entryX=0;entryY=0.5;entryDx=0;entryDy=0;labelBackgroundColor=default;strokeColor=#666666;strokeWidth=3;align=center;verticalAlign=middle;fontFamily=Helvetica;fontSize=11;fontColor=default;startArrow=none;startFill=0;endArrow=openThin;endFill=0;fontStyle=0" parent="1" source="4REqOIB7tcGAyymllORO-106" target="4REqOIB7tcGAyymllORO-107" edge="1">
          <mxGeometry relative="1" as="geometry" />
        </mxCell>
        <mxCell id="4REqOIB7tcGAyymllORO-114" style="edgeStyle=orthogonalEdgeStyle;shape=connector;curved=0;rounded=1;orthogonalLoop=1;jettySize=auto;html=1;exitX=1;exitY=0.5;exitDx=0;exitDy=0;labelBackgroundColor=default;strokeColor=#666666;strokeWidth=3;align=center;verticalAlign=middle;fontFamily=Helvetica;fontSize=11;fontColor=default;startArrow=none;startFill=0;endArrow=openThin;endFill=0;entryX=-0.013;entryY=0.943;entryDx=0;entryDy=0;entryPerimeter=0;fontStyle=0" parent="1" source="4REqOIB7tcGAyymllORO-111" edge="1">
          <mxGeometry relative="1" as="geometry">
            <mxPoint x="1513.1" y="538.0799999999999" as="targetPoint" />
          </mxGeometry>
        </mxCell>
        <mxCell id="4REqOIB7tcGAyymllORO-111" value="&lt;font color=&quot;#666666&quot;&gt;&lt;b&gt;Properties&lt;/b&gt;&lt;/font&gt;" style="rounded=1;whiteSpace=wrap;html=1;strokeColor=#666666;fontFamily=Helvetica;fontSize=12;fontColor=#143642;fillColor=#FFFFFF;arcSize=0;fontStyle=0;shadow=0;labelBackgroundColor=none;container=0;strokeWidth=3;" parent="1" vertex="1">
          <mxGeometry x="1392.6599999999999" y="523" width="70" height="30" as="geometry" />
        </mxCell>
        <mxCell id="4REqOIB7tcGAyymllORO-113" style="edgeStyle=orthogonalEdgeStyle;shape=connector;curved=0;rounded=1;orthogonalLoop=1;jettySize=auto;html=1;exitX=1;exitY=0.5;exitDx=0;exitDy=0;entryX=0;entryY=0.5;entryDx=0;entryDy=0;labelBackgroundColor=default;strokeColor=#666666;strokeWidth=3;align=center;verticalAlign=middle;fontFamily=Helvetica;fontSize=11;fontColor=default;startArrow=none;startFill=0;endArrow=openThin;endFill=0;fontStyle=0" parent="1" source="4REqOIB7tcGAyymllORO-104" target="4REqOIB7tcGAyymllORO-111" edge="1">
          <mxGeometry relative="1" as="geometry" />
        </mxCell>
        <mxCell id="4REqOIB7tcGAyymllORO-116" style="edgeStyle=orthogonalEdgeStyle;shape=connector;curved=0;rounded=0;orthogonalLoop=1;jettySize=auto;html=1;labelBackgroundColor=default;strokeColor=#666666;strokeWidth=3;align=center;verticalAlign=middle;fontFamily=Helvetica;fontSize=11;fontColor=default;endArrow=none;endFill=0;startArrow=openThin;startFill=0;fontStyle=0" parent="1" edge="1">
          <mxGeometry relative="1" as="geometry">
            <mxPoint x="1002.66" y="585" as="targetPoint" />
            <mxPoint x="1072.6599999999999" y="585" as="sourcePoint" />
          </mxGeometry>
        </mxCell>
        <mxCell id="4REqOIB7tcGAyymllORO-117" value="&lt;font size=&quot;1&quot; color=&quot;#666666&quot;&gt;&lt;b style=&quot;font-size: 12px;&quot;&gt;Properties&lt;br&gt;&lt;/b&gt;&lt;/font&gt;" style="text;html=1;strokeColor=none;fillColor=none;align=left;verticalAlign=middle;whiteSpace=wrap;rounded=0;fontSize=11;fontFamily=Helvetica;fontColor=#333333;container=0;fontStyle=0" parent="1" vertex="1">
          <mxGeometry x="1000.5899999999999" y="560" width="60" height="30" as="geometry" />
        </mxCell>
        <mxCell id="4REqOIB7tcGAyymllORO-119" value="" style="edgeStyle=orthogonalEdgeStyle;shape=connector;curved=0;rounded=1;orthogonalLoop=1;jettySize=auto;html=1;labelBackgroundColor=default;strokeColor=#666666;strokeWidth=3;align=center;verticalAlign=middle;fontFamily=Helvetica;fontSize=11;fontColor=default;startArrow=none;startFill=0;endArrow=openThin;endFill=0;fontStyle=0" parent="1" source="4REqOIB7tcGAyymllORO-105" target="4REqOIB7tcGAyymllORO-102" edge="1">
          <mxGeometry relative="1" as="geometry">
            <mxPoint x="1129.6599999999999" y="585" as="sourcePoint" />
            <mxPoint x="1242.6599999999999" y="585" as="targetPoint" />
          </mxGeometry>
        </mxCell>
        <mxCell id="4REqOIB7tcGAyymllORO-124" style="edgeStyle=orthogonalEdgeStyle;shape=connector;curved=0;rounded=1;orthogonalLoop=1;jettySize=auto;html=1;exitX=1;exitY=0.5;exitDx=0;exitDy=0;entryX=0;entryY=0.5;entryDx=0;entryDy=0;labelBackgroundColor=default;strokeColor=#666666;strokeWidth=3;align=center;verticalAlign=middle;fontFamily=Helvetica;fontSize=11;fontColor=default;startArrow=none;startFill=0;endArrow=openThin;endFill=0;fontStyle=0" parent="1" source="4REqOIB7tcGAyymllORO-102" target="4REqOIB7tcGAyymllORO-107" edge="1">
          <mxGeometry relative="1" as="geometry">
            <Array as="points">
              <mxPoint x="1252.6599999999999" y="585" />
              <mxPoint x="1252.6599999999999" y="610" />
              <mxPoint x="1362.6599999999999" y="610" />
              <mxPoint x="1362.6599999999999" y="585" />
            </Array>
          </mxGeometry>
        </mxCell>
        <mxCell id="4REqOIB7tcGAyymllORO-102" value="&lt;font color=&quot;#666666&quot;&gt;&lt;b&gt;Required&lt;/b&gt;&lt;/font&gt;" style="rounded=1;whiteSpace=wrap;html=1;strokeColor=#666666;fontFamily=Helvetica;fontSize=12;fontColor=#143642;fillColor=#FFFFFF;arcSize=0;fontStyle=0;shadow=0;labelBackgroundColor=none;container=0;strokeWidth=3;" parent="1" vertex="1">
          <mxGeometry x="1168.6599999999999" y="570" width="70" height="30" as="geometry" />
        </mxCell>
        <mxCell id="4REqOIB7tcGAyymllORO-118" value="" style="edgeStyle=orthogonalEdgeStyle;shape=connector;curved=0;rounded=1;orthogonalLoop=1;jettySize=auto;html=1;labelBackgroundColor=default;strokeColor=#666666;strokeWidth=3;align=center;verticalAlign=middle;fontFamily=Helvetica;fontSize=11;fontColor=default;startArrow=none;startFill=0;endArrow=openThin;endFill=0;fontStyle=0" parent="1" source="4REqOIB7tcGAyymllORO-102" target="4REqOIB7tcGAyymllORO-106" edge="1">
          <mxGeometry relative="1" as="geometry" />
        </mxCell>
        <mxCell id="4REqOIB7tcGAyymllORO-163" style="edgeStyle=orthogonalEdgeStyle;shape=connector;curved=0;rounded=0;orthogonalLoop=1;jettySize=auto;html=1;labelBackgroundColor=default;strokeColor=#666666;strokeWidth=3;align=center;verticalAlign=middle;fontFamily=Helvetica;fontSize=11;fontColor=default;endArrow=none;endFill=0;startArrow=openThin;startFill=0;exitX=0;exitY=0.5;exitDx=0;exitDy=0;fontStyle=0" parent="1" source="4REqOIB7tcGAyymllORO-165" edge="1">
          <mxGeometry relative="1" as="geometry">
            <mxPoint x="1266.6599999999999" y="644" as="targetPoint" />
            <mxPoint x="1326.6599999999999" y="645" as="sourcePoint" />
            <Array as="points">
              <mxPoint x="1268.6599999999999" y="644" />
            </Array>
          </mxGeometry>
        </mxCell>
        <mxCell id="4REqOIB7tcGAyymllORO-164" value="&lt;font size=&quot;1&quot; color=&quot;#666666&quot;&gt;&lt;b style=&quot;font-size: 12px;&quot;&gt;Required&lt;br&gt;&lt;/b&gt;&lt;/font&gt;" style="text;html=1;strokeColor=none;fillColor=none;align=left;verticalAlign=middle;whiteSpace=wrap;rounded=0;fontSize=11;fontFamily=Helvetica;fontColor=#333333;container=0;fontStyle=0" parent="1" vertex="1">
          <mxGeometry x="1268.35" y="623" width="60" height="20" as="geometry" />
        </mxCell>
        <mxCell id="4REqOIB7tcGAyymllORO-165" value="&lt;font color=&quot;#666666&quot;&gt;&lt;b&gt;required:&lt;/b&gt;&lt;/font&gt;" style="rounded=1;whiteSpace=wrap;html=1;strokeColor=#666666;fontFamily=Helvetica;fontSize=12;fontColor=#143642;fillColor=#ffffff;arcSize=50;fontStyle=0;shadow=0;labelBackgroundColor=none;align=center;verticalAlign=middle;strokeWidth=3;container=0;" parent="1" vertex="1">
          <mxGeometry x="1334.6699999999998" y="629" width="67.99" height="30" as="geometry" />
        </mxCell>
        <mxCell id="4REqOIB7tcGAyymllORO-168" style="edgeStyle=orthogonalEdgeStyle;shape=connector;curved=0;rounded=1;orthogonalLoop=1;jettySize=auto;html=1;exitX=1;exitY=0.5;exitDx=0;exitDy=0;labelBackgroundColor=default;strokeColor=#666666;strokeWidth=3;align=center;verticalAlign=middle;fontFamily=Helvetica;fontSize=11;fontColor=default;startArrow=none;startFill=0;endArrow=openThin;endFill=0;fontStyle=0" parent="1" source="4REqOIB7tcGAyymllORO-166" edge="1">
          <mxGeometry relative="1" as="geometry">
            <mxPoint x="1512.6599999999999" y="644" as="targetPoint" />
          </mxGeometry>
        </mxCell>
        <mxCell id="4REqOIB7tcGAyymllORO-166" value="&lt;b style=&quot;border-color: var(--border-color); color: rgb(51, 51, 51);&quot;&gt;&lt;font style=&quot;border-color: var(--border-color);&quot; color=&quot;#666666&quot;&gt;Boolean&lt;/font&gt;&lt;/b&gt;" style="ellipse;whiteSpace=wrap;html=1;rounded=1;labelBackgroundColor=none;strokeColor=#666666;fontFamily=Helvetica;fontSize=12;fontColor=default;fillColor=default;container=0;strokeWidth=3;fontStyle=0" parent="1" vertex="1">
          <mxGeometry x="1420.6599999999999" y="629" width="70" height="30" as="geometry" />
        </mxCell>
        <mxCell id="4REqOIB7tcGAyymllORO-167" value="" style="edgeStyle=orthogonalEdgeStyle;shape=connector;curved=0;rounded=1;orthogonalLoop=1;jettySize=auto;html=1;labelBackgroundColor=default;strokeColor=#666666;strokeWidth=3;align=center;verticalAlign=middle;fontFamily=Helvetica;fontSize=11;fontColor=default;startArrow=none;startFill=0;endArrow=openThin;endFill=0;fontStyle=0" parent="1" source="4REqOIB7tcGAyymllORO-165" target="4REqOIB7tcGAyymllORO-166" edge="1">
          <mxGeometry relative="1" as="geometry">
            <Array as="points">
              <mxPoint x="1406.6599999999999" y="644" />
              <mxPoint x="1406.6599999999999" y="644" />
            </Array>
          </mxGeometry>
        </mxCell>
        <mxCell id="4REqOIB7tcGAyymllORO-172" style="edgeStyle=orthogonalEdgeStyle;shape=connector;curved=0;rounded=0;orthogonalLoop=1;jettySize=auto;html=1;labelBackgroundColor=default;strokeColor=#666666;strokeWidth=3;align=center;verticalAlign=middle;fontFamily=Helvetica;fontSize=11;fontColor=default;endArrow=none;endFill=0;startArrow=openThin;startFill=0;exitX=0;exitY=0.5;exitDx=0;exitDy=0;fontStyle=0" parent="1" source="4REqOIB7tcGAyymllORO-174" edge="1">
          <mxGeometry relative="1" as="geometry">
            <mxPoint x="1266.9699999999998" y="689" as="targetPoint" />
            <mxPoint x="1326.9699999999998" y="690" as="sourcePoint" />
            <Array as="points">
              <mxPoint x="1268.9699999999998" y="689" />
            </Array>
          </mxGeometry>
        </mxCell>
        <mxCell id="4REqOIB7tcGAyymllORO-173" value="&lt;font size=&quot;1&quot; color=&quot;#666666&quot;&gt;&lt;b style=&quot;font-size: 12px;&quot;&gt;Count&lt;br&gt;&lt;/b&gt;&lt;/font&gt;" style="text;html=1;strokeColor=none;fillColor=none;align=left;verticalAlign=middle;whiteSpace=wrap;rounded=0;fontSize=11;fontFamily=Helvetica;fontColor=#333333;container=0;fontStyle=0" parent="1" vertex="1">
          <mxGeometry x="1268.6599999999999" y="668" width="60" height="20" as="geometry" />
        </mxCell>
        <mxCell id="4REqOIB7tcGAyymllORO-174" value="&lt;font color=&quot;#666666&quot;&gt;&lt;b&gt;count:&lt;/b&gt;&lt;/font&gt;" style="rounded=1;whiteSpace=wrap;html=1;strokeColor=#666666;fontFamily=Helvetica;fontSize=12;fontColor=#143642;fillColor=#ffffff;arcSize=50;fontStyle=0;shadow=0;labelBackgroundColor=none;align=center;verticalAlign=middle;strokeWidth=3;container=0;" parent="1" vertex="1">
          <mxGeometry x="1334.9799999999998" y="674" width="67.99" height="30" as="geometry" />
        </mxCell>
        <mxCell id="4REqOIB7tcGAyymllORO-175" style="edgeStyle=orthogonalEdgeStyle;shape=connector;curved=0;rounded=1;orthogonalLoop=1;jettySize=auto;html=1;exitX=1;exitY=0.5;exitDx=0;exitDy=0;labelBackgroundColor=default;strokeColor=#666666;strokeWidth=3;align=center;verticalAlign=middle;fontFamily=Helvetica;fontSize=11;fontColor=default;startArrow=none;startFill=0;endArrow=openThin;endFill=0;fontStyle=0" parent="1" source="4REqOIB7tcGAyymllORO-176" edge="1">
          <mxGeometry relative="1" as="geometry">
            <mxPoint x="1512.9699999999998" y="689" as="targetPoint" />
          </mxGeometry>
        </mxCell>
        <mxCell id="4REqOIB7tcGAyymllORO-176" value="&lt;b style=&quot;border-color: var(--border-color); color: rgb(51, 51, 51);&quot;&gt;&lt;font style=&quot;border-color: var(--border-color);&quot; color=&quot;#666666&quot;&gt;Integer&lt;/font&gt;&lt;/b&gt;" style="ellipse;whiteSpace=wrap;html=1;rounded=1;labelBackgroundColor=none;strokeColor=#666666;fontFamily=Helvetica;fontSize=12;fontColor=default;fillColor=default;container=0;strokeWidth=3;fontStyle=0" parent="1" vertex="1">
          <mxGeometry x="1420.9699999999998" y="674" width="70" height="30" as="geometry" />
        </mxCell>
        <mxCell id="4REqOIB7tcGAyymllORO-177" value="" style="edgeStyle=orthogonalEdgeStyle;shape=connector;curved=0;rounded=1;orthogonalLoop=1;jettySize=auto;html=1;labelBackgroundColor=default;strokeColor=#666666;strokeWidth=3;align=center;verticalAlign=middle;fontFamily=Helvetica;fontSize=11;fontColor=default;startArrow=none;startFill=0;endArrow=openThin;endFill=0;fontStyle=0" parent="1" source="4REqOIB7tcGAyymllORO-174" target="4REqOIB7tcGAyymllORO-176" edge="1">
          <mxGeometry relative="1" as="geometry">
            <Array as="points">
              <mxPoint x="1406.9699999999998" y="689" />
              <mxPoint x="1406.9699999999998" y="689" />
            </Array>
          </mxGeometry>
        </mxCell>
        <mxCell id="4REqOIB7tcGAyymllORO-186" style="edgeStyle=orthogonalEdgeStyle;shape=connector;curved=0;rounded=0;orthogonalLoop=1;jettySize=auto;html=1;labelBackgroundColor=default;strokeColor=#666666;strokeWidth=3;align=center;verticalAlign=middle;fontFamily=Helvetica;fontSize=11;fontColor=default;endArrow=none;endFill=0;startArrow=openThin;startFill=0;exitX=0;exitY=0.5;exitDx=0;exitDy=0;fontStyle=0" parent="1" source="4REqOIB7tcGAyymllORO-188" edge="1">
          <mxGeometry relative="1" as="geometry">
            <mxPoint x="1266.9699999999998" y="733" as="targetPoint" />
            <mxPoint x="1326.9699999999998" y="734" as="sourcePoint" />
            <Array as="points">
              <mxPoint x="1268.9699999999998" y="733" />
            </Array>
          </mxGeometry>
        </mxCell>
        <mxCell id="4REqOIB7tcGAyymllORO-187" value="&lt;font size=&quot;1&quot; color=&quot;#666666&quot;&gt;&lt;b style=&quot;font-size: 12px;&quot;&gt;Timeout&lt;br&gt;&lt;/b&gt;&lt;/font&gt;" style="text;html=1;strokeColor=none;fillColor=none;align=left;verticalAlign=middle;whiteSpace=wrap;rounded=0;fontSize=11;fontFamily=Helvetica;fontColor=#333333;container=0;fontStyle=0" parent="1" vertex="1">
          <mxGeometry x="1268.6599999999999" y="712" width="60" height="20" as="geometry" />
        </mxCell>
        <mxCell id="4REqOIB7tcGAyymllORO-188" value="&lt;font color=&quot;#666666&quot;&gt;&lt;b&gt;timeout:&lt;/b&gt;&lt;/font&gt;" style="rounded=1;whiteSpace=wrap;html=1;strokeColor=#666666;fontFamily=Helvetica;fontSize=12;fontColor=#143642;fillColor=#ffffff;arcSize=50;fontStyle=0;shadow=0;labelBackgroundColor=none;align=center;verticalAlign=middle;strokeWidth=3;container=0;" parent="1" vertex="1">
          <mxGeometry x="1334.9799999999998" y="718" width="67.99" height="30" as="geometry" />
        </mxCell>
        <mxCell id="4REqOIB7tcGAyymllORO-189" style="edgeStyle=orthogonalEdgeStyle;shape=connector;curved=0;rounded=1;orthogonalLoop=1;jettySize=auto;html=1;exitX=1;exitY=0.5;exitDx=0;exitDy=0;labelBackgroundColor=default;strokeColor=#666666;strokeWidth=3;align=center;verticalAlign=middle;fontFamily=Helvetica;fontSize=11;fontColor=default;startArrow=none;startFill=0;endArrow=openThin;endFill=0;fontStyle=0" parent="1" source="4REqOIB7tcGAyymllORO-190" edge="1">
          <mxGeometry relative="1" as="geometry">
            <mxPoint x="1512.9699999999998" y="733" as="targetPoint" />
          </mxGeometry>
        </mxCell>
        <mxCell id="4REqOIB7tcGAyymllORO-190" value="&lt;b style=&quot;border-color: var(--border-color); color: rgb(51, 51, 51);&quot;&gt;&lt;font style=&quot;border-color: var(--border-color);&quot; color=&quot;#666666&quot;&gt;Integer&lt;/font&gt;&lt;/b&gt;" style="ellipse;whiteSpace=wrap;html=1;rounded=1;labelBackgroundColor=none;strokeColor=#666666;fontFamily=Helvetica;fontSize=12;fontColor=default;fillColor=default;container=0;strokeWidth=3;fontStyle=0" parent="1" vertex="1">
          <mxGeometry x="1420.9699999999998" y="718" width="70" height="30" as="geometry" />
        </mxCell>
        <mxCell id="4REqOIB7tcGAyymllORO-191" value="" style="edgeStyle=orthogonalEdgeStyle;shape=connector;curved=0;rounded=1;orthogonalLoop=1;jettySize=auto;html=1;labelBackgroundColor=default;strokeColor=#666666;strokeWidth=3;align=center;verticalAlign=middle;fontFamily=Helvetica;fontSize=11;fontColor=default;startArrow=none;startFill=0;endArrow=openThin;endFill=0;fontStyle=0" parent="1" source="4REqOIB7tcGAyymllORO-188" target="4REqOIB7tcGAyymllORO-190" edge="1">
          <mxGeometry relative="1" as="geometry">
            <Array as="points">
              <mxPoint x="1406.9699999999998" y="733" />
              <mxPoint x="1406.9699999999998" y="733" />
            </Array>
          </mxGeometry>
        </mxCell>
        <mxCell id="4REqOIB7tcGAyymllORO-152" style="edgeStyle=orthogonalEdgeStyle;shape=connector;curved=0;rounded=1;orthogonalLoop=1;jettySize=auto;html=1;exitX=1;exitY=0.5;exitDx=0;exitDy=0;labelBackgroundColor=default;strokeColor=#666666;strokeWidth=3;align=center;verticalAlign=middle;fontFamily=Helvetica;fontSize=11;fontColor=default;startArrow=none;startFill=0;endArrow=openThin;endFill=0;fontStyle=0" parent="1" source="4REqOIB7tcGAyymllORO-74" edge="1">
          <mxGeometry relative="1" as="geometry">
            <mxPoint x="1262.6599999999999" y="686" as="targetPoint" />
            <Array as="points">
              <mxPoint x="1242.6599999999999" y="646" />
              <mxPoint x="1242.6599999999999" y="686" />
            </Array>
          </mxGeometry>
        </mxCell>
        <mxCell id="4REqOIB7tcGAyymllORO-74" value="&lt;b style=&quot;border-color: var(--border-color); color: rgb(51, 51, 51);&quot;&gt;&lt;font style=&quot;border-color: var(--border-color);&quot; color=&quot;#666666&quot;&gt;&quot;number&quot;&lt;/font&gt;&lt;/b&gt;" style="ellipse;whiteSpace=wrap;html=1;rounded=1;labelBackgroundColor=none;strokeColor=#666666;fontFamily=Helvetica;fontSize=12;fontColor=default;fillColor=default;container=0;strokeWidth=3;fontStyle=0" parent="1" vertex="1">
          <mxGeometry x="1154.6599999999999" y="631" width="70" height="30" as="geometry" />
        </mxCell>
        <mxCell id="4REqOIB7tcGAyymllORO-126" style="edgeStyle=orthogonalEdgeStyle;shape=connector;curved=0;rounded=0;orthogonalLoop=1;jettySize=auto;html=1;labelBackgroundColor=default;strokeColor=#666666;strokeWidth=3;align=center;verticalAlign=middle;fontFamily=Helvetica;fontSize=11;fontColor=default;endArrow=none;endFill=0;startArrow=openThin;startFill=0;fontStyle=0" parent="1" edge="1">
          <mxGeometry relative="1" as="geometry">
            <mxPoint x="1004.35" y="687" as="targetPoint" />
            <mxPoint x="1062.85" y="687" as="sourcePoint" />
          </mxGeometry>
        </mxCell>
        <mxCell id="4REqOIB7tcGAyymllORO-127" value="&lt;font size=&quot;1&quot; color=&quot;#666666&quot;&gt;&lt;b style=&quot;font-size: 12px;&quot;&gt;Output&lt;br&gt;&lt;/b&gt;&lt;/font&gt;" style="text;html=1;strokeColor=none;fillColor=none;align=left;verticalAlign=middle;whiteSpace=wrap;rounded=0;fontSize=11;fontFamily=Helvetica;fontColor=#333333;container=0;fontStyle=0" parent="1" vertex="1">
          <mxGeometry x="1004.54" y="665" width="60" height="20" as="geometry" />
        </mxCell>
        <mxCell id="4REqOIB7tcGAyymllORO-148" style="edgeStyle=orthogonalEdgeStyle;shape=connector;curved=0;rounded=1;orthogonalLoop=1;jettySize=auto;html=1;exitX=1;exitY=0.5;exitDx=0;exitDy=0;entryX=0;entryY=0.5;entryDx=0;entryDy=0;labelBackgroundColor=default;strokeColor=#666666;strokeWidth=3;align=center;verticalAlign=middle;fontFamily=Helvetica;fontSize=11;fontColor=default;startArrow=none;startFill=0;endArrow=openThin;endFill=0;fontStyle=0" parent="1" source="4REqOIB7tcGAyymllORO-128" target="4REqOIB7tcGAyymllORO-74" edge="1">
          <mxGeometry relative="1" as="geometry">
            <Array as="points">
              <mxPoint x="1132.6599999999999" y="686" />
              <mxPoint x="1132.6599999999999" y="646" />
            </Array>
          </mxGeometry>
        </mxCell>
        <mxCell id="4REqOIB7tcGAyymllORO-128" value="&lt;font color=&quot;#666666&quot;&gt;&lt;b&gt;output:&lt;/b&gt;&lt;/font&gt;" style="rounded=1;whiteSpace=wrap;html=1;strokeColor=#666666;fontFamily=Helvetica;fontSize=12;fontColor=#143642;fillColor=#ffffff;arcSize=50;fontStyle=0;shadow=0;labelBackgroundColor=none;align=center;verticalAlign=middle;strokeWidth=3;container=0;" parent="1" vertex="1">
          <mxGeometry x="1064.8600000000001" y="671" width="57.99" height="30" as="geometry" />
        </mxCell>
        <mxCell id="4REqOIB7tcGAyymllORO-151" style="edgeStyle=orthogonalEdgeStyle;shape=connector;curved=0;rounded=1;orthogonalLoop=1;jettySize=auto;html=1;exitX=1;exitY=0.5;exitDx=0;exitDy=0;labelBackgroundColor=default;strokeColor=#666666;strokeWidth=3;align=center;verticalAlign=middle;fontFamily=Helvetica;fontSize=11;fontColor=default;startArrow=none;startFill=0;endArrow=openThin;endFill=0;fontStyle=0" parent="1" source="4REqOIB7tcGAyymllORO-146" edge="1">
          <mxGeometry relative="1" as="geometry">
            <mxPoint x="1262.6599999999999" y="686" as="targetPoint" />
          </mxGeometry>
        </mxCell>
        <mxCell id="4REqOIB7tcGAyymllORO-146" value="&lt;b style=&quot;border-color: var(--border-color); color: rgb(51, 51, 51);&quot;&gt;&lt;font style=&quot;border-color: var(--border-color);&quot; color=&quot;#666666&quot;&gt;&quot;text&quot;&lt;/font&gt;&lt;/b&gt;" style="ellipse;whiteSpace=wrap;html=1;rounded=1;labelBackgroundColor=none;strokeColor=#666666;fontFamily=Helvetica;fontSize=12;fontColor=default;fillColor=default;container=0;strokeWidth=3;fontStyle=0" parent="1" vertex="1">
          <mxGeometry x="1154.6599999999999" y="671" width="70" height="30" as="geometry" />
        </mxCell>
        <mxCell id="4REqOIB7tcGAyymllORO-149" style="edgeStyle=orthogonalEdgeStyle;shape=connector;curved=0;rounded=1;orthogonalLoop=1;jettySize=auto;html=1;exitX=1;exitY=0.5;exitDx=0;exitDy=0;entryX=0;entryY=0.5;entryDx=0;entryDy=0;labelBackgroundColor=default;strokeColor=#666666;strokeWidth=3;align=center;verticalAlign=middle;fontFamily=Helvetica;fontSize=11;fontColor=default;startArrow=none;startFill=0;endArrow=openThin;endFill=0;fontStyle=0" parent="1" source="4REqOIB7tcGAyymllORO-128" target="4REqOIB7tcGAyymllORO-146" edge="1">
          <mxGeometry relative="1" as="geometry" />
        </mxCell>
        <mxCell id="4REqOIB7tcGAyymllORO-153" style="edgeStyle=orthogonalEdgeStyle;shape=connector;curved=0;rounded=1;orthogonalLoop=1;jettySize=auto;html=1;exitX=1;exitY=0.5;exitDx=0;exitDy=0;labelBackgroundColor=default;strokeColor=#666666;strokeWidth=3;align=center;verticalAlign=middle;fontFamily=Helvetica;fontSize=11;fontColor=default;startArrow=none;startFill=0;endArrow=openThin;endFill=0;fontStyle=0" parent="1" source="4REqOIB7tcGAyymllORO-147" edge="1">
          <mxGeometry relative="1" as="geometry">
            <mxPoint x="1262.6599999999999" y="686" as="targetPoint" />
            <Array as="points">
              <mxPoint x="1242.6599999999999" y="726" />
              <mxPoint x="1242.6599999999999" y="686" />
            </Array>
          </mxGeometry>
        </mxCell>
        <mxCell id="4REqOIB7tcGAyymllORO-147" value="&lt;b style=&quot;border-color: var(--border-color); color: rgb(51, 51, 51);&quot;&gt;&lt;font style=&quot;border-color: var(--border-color);&quot; color=&quot;#666666&quot;&gt;&quot;bool&quot;&lt;/font&gt;&lt;/b&gt;" style="ellipse;whiteSpace=wrap;html=1;rounded=1;labelBackgroundColor=none;strokeColor=#666666;fontFamily=Helvetica;fontSize=12;fontColor=default;fillColor=default;container=0;strokeWidth=3;fontStyle=0" parent="1" vertex="1">
          <mxGeometry x="1154.6599999999999" y="711" width="70" height="30" as="geometry" />
        </mxCell>
        <mxCell id="4REqOIB7tcGAyymllORO-150" style="edgeStyle=orthogonalEdgeStyle;shape=connector;curved=0;rounded=1;orthogonalLoop=1;jettySize=auto;html=1;exitX=1;exitY=0.5;exitDx=0;exitDy=0;entryX=0;entryY=0.5;entryDx=0;entryDy=0;labelBackgroundColor=default;strokeColor=#666666;strokeWidth=3;align=center;verticalAlign=middle;fontFamily=Helvetica;fontSize=11;fontColor=default;startArrow=none;startFill=0;endArrow=openThin;endFill=0;fontStyle=0" parent="1" source="4REqOIB7tcGAyymllORO-128" target="4REqOIB7tcGAyymllORO-147" edge="1">
          <mxGeometry relative="1" as="geometry">
            <Array as="points">
              <mxPoint x="1132.6599999999999" y="686" />
              <mxPoint x="1132.6599999999999" y="726" />
            </Array>
          </mxGeometry>
        </mxCell>
      </root>
    </mxGraphModel>
  </diagram>
</mxfile>
